#!OML:ASF F:\twosubjects\two\Thursday\Session 1\justin.ASF
:FULLY-SPECIFIED
:DEGREES
521
root 7.54332 12.9846 -13.4627 24.9158 37.059 -3.7633
lowerback 41.7034 2.45572 -3.96174
upperback 6.19763 1.40592 -1.34827
thorax -13.0819 0.877592 -0.0806408
lowerneck -18.9089 -14.4169 -14.8783
upperneck 7.42134 -19.3404 22.7514
head 9.37195 -8.06538 7.02349
rclavicle -1.15295e-014 3.77691e-015
rhumerus 30.0898 -28.1137 -55.1654
rradius 124.557
rwrist -10.1109
rhand 7.66444 3.23628
rfingers 7.12502
rthumb 32.9079 -23.7833
lclavicle -1.15295e-014 3.77691e-015
lhumerus 60.6081 -64.6503 62.7398
lradius 89.1673
lwrist -15.2335
lhand -11.1654 80.2325
lfingers 7.12502
lthumb 14.8612 -109.68
rfemur -84.0734 -38.4459 15.7941
rtibia 80.8128
rfoot -14.0765 -3.48706
rtoes -29.1675
lfemur -69.735 21.3976 10.7648
ltibia 70.744
lfoot -23.9639 -4.40567
ltoes -28.4068
522
root 7.54046 12.974 -13.4629 25.6302 37.0533 -3.38926
lowerback 41.4968 2.61478 -4.46171
upperback 6.36023 1.38318 -1.52777
thorax -12.8212 0.88467 -0.000297918
lowerneck -19.1196 -14.4056 -14.5721
upperneck 7.37439 -19.282 22.3018
head 9.28291 -8.05229 6.82143
rclavicle -3.18055e-015 -1.33186e-013
rhumerus 29.9603 -29.0887 -55.1499
rradius 124.951
rwrist -10.2787
rhand 7.43453 2.81478
rfingers 7.12502
rthumb 32.6892 -24.2505
lclavicle -3.18055e-015 -1.33186e-013
lhumerus 61.8291 -65.0595 61.9555
lradius 89.3224
lwrist -15.9189
lhand -11.0688 80.8888
lfingers 7.12502
lthumb 14.9542 -110.329
rfemur -84.9467 -38.7223 16.0273
rtibia 80.9445
rfoot -14.0746 -3.37501
rtoes -28.8572
lfemur -70.2616 21.211 10.49
ltibia 70.729
lfoot -23.8186 -4.02614
ltoes -28.2723
523
root 7.53278 12.9638 -13.4532 25.961 37.1208 -3.40418
lowerback 41.4404 2.84013 -4.89025
upperback 6.47581 1.48191 -1.57107
thorax -12.6697 0.941234 0.132356
lowerneck -18.7564 -14.4583 -14.683
upperneck 7.18096 -19.3736 22.5016
head 9.21364 -8.12073 6.89968
rclavicle -2.8625e-014 1.02573e-013
rhumerus 29.6811 -29.9463 -55.028
rradius 125.176
rwrist -10.3677
rhand 7.06407 2.79991
rfingers 7.12502
rthumb 32.3367 -24.3379
lclavicle -2.8625e-014 1.02573e-013
lhumerus 62.7418 -65.5675 61.4303
lradius 89.6013
lwrist -16.6687
lhand -10.6413 81.8533
lfingers 7.12502
lthumb 15.3661 -111.262
rfemur -85.5666 -38.8238 16.4621
rtibia 81.1253
rfoot -14.1597 -3.36303
rtoes -28.0075
lfemur -70.5959 21.2139 10.5728
ltibia 70.7181
lfoot -23.7451 -3.86943
ltoes -27.919
524
root 7.51847 12.9535 -13.4277 25.8874 37.2777 -3.74832
lowerback 41.422 3.22813 -5.48047
upperback 6.68519 1.76611 -1.27281
thorax -12.44 1.08074 0.637329
lowerneck -18.4472 -14.545 -14.8969
upperneck 7.13666 -19.4672 22.484
head 9.18214 -8.19845 6.91696
rclavicle 7.4743e-014 5.84427e-014
rhumerus 29.4738 -30.6994 -54.7201
rradius 125.513
rwrist -10.498
rhand 7.01119 3.01061
rfingers 7.12502
rthumb 32.2863 -24.1375
lclavicle 7.4743e-014 5.84427e-014
lhumerus 63.6769 -65.8995 61.2957
lradius 89.5938
lwrist -17.4099
lhand -9.5673 82.7607
lfingers 7.12502
lthumb 16.4003 -112.087
rfemur -85.9433 -38.8906 17.1054
rtibia 81.3854
rfoot -14.3243 -3.32286
rtoes -27.813
lfemur -70.6002 21.2714 11.0786
ltibia 70.6896
lfoot -23.779 -3.84886
ltoes -27.4997
525
root 7.50401 12.9351 -13.4037 25.6774 37.5896 -4.17586
lowerback 41.5412 3.51676 -5.85798
upperback 6.91449 2.02123 -0.910771
thorax -12.2385 1.19937 1.11118
lowerneck -19.0739 -14.6088 -14.9624
upperneck 8.01119 -19.478 21.727
head 9.48098 -8.17775 6.64352
rclavicle 3.49861e-014 3.93594e-014
rhumerus 29.4722 -31.4917 -54.2232
rradius 125.779
rwrist -10.7668
rhand 7.20346 3.38602
rfingers 7.12502
rthumb 32.4693 -23.7247
lclavicle 3.49861e-014 3.93594e-014
lhumerus 64.6678 -66.1543 61.1156
lradius 89.6039
lwrist -18.1046
lhand -8.72732 83.0815
lfingers 7.12502
lthumb 17.2089 -112.339
rfemur -86.2843 -39.1461 17.874
rtibia 81.6813
rfoot -14.5029 -3.20264
rtoes -28.5385
lfemur -70.6027 21.211 11.7436
ltibia 70.6693
lfoot -23.8097 -3.85382
ltoes -27.102
526
root 7.49484 12.9213 -13.3893 25.6164 37.8927 -4.5025
lowerback 41.7673 3.68514 -6.03797
upperback 6.98823 2.16738 -0.726171
thorax -12.2407 1.26773 1.33289
lowerneck -19.6755 -14.6406 -14.8514
upperneck 9.14728 -19.5122 20.9026
head 9.84709 -8.16203 6.31777
rclavicle 5.84427e-014 3.35946e-014
rhumerus 29.2538 -32.1821 -53.7458
rradius 126.059
rwrist -10.8048
rhand 7.17349 3.14577
rfingers 7.12502
rthumb 32.4408 -23.9708
lclavicle 5.84427e-014 3.35946e-014
lhumerus 65.7441 -66.6267 60.6479
lradius 89.5634
lwrist -18.7434
lhand -8.83828 82.8449
lfingers 7.12502
lthumb 17.1021 -112.112
rfemur -86.6225 -39.3259 18.4843
rtibia 81.9036
rfoot -14.6382 -3.1913
rtoes -29.1225
lfemur -70.764 21.1036 12.2366
ltibia 70.6458
lfoot -23.6515 -4.06231
ltoes -26.4194
527
root 7.49396 12.9136 -13.3776 25.886 37.9957 -4.65606
lowerback 41.641 3.85023 -6.28835
upperback 7.06412 2.27832 -0.710511
thorax -12.1219 1.32063 1.43326
lowerneck -19.7787 -14.6393 -14.7555
upperneck 9.6667 -19.5033 20.3854
head 9.95724 -8.16775 6.12509
rclavicle 3.93594e-014 -3.51849e-014
rhumerus 28.8551 -32.9224 -53.5071
rradius 126.461
rwrist -10.4891
rhand 6.72805 2.8835
rfingers 7.12502
rthumb 32.0168 -24.3191
lclavicle 3.93594e-014 -3.51849e-014
lhumerus 67.6307 -67.0504 59.4681
lradius 89.2467
lwrist -19.1829
lhand -9.29195 83.3476
lfingers 7.12502
lthumb 16.6654 -112.652
rfemur -87.1931 -39.3653 18.9894
rtibia 82.0494
rfoot -14.6451 -3.17926
rtoes -29.7263
lfemur -71.1044 21.1456 12.4164
ltibia 70.6628
lfoot -23.5075 -4.19121
ltoes -26.1664
528
root 7.49557 12.9003 -13.3716 26.3371 38.0831 -4.6282
lowerback 41.3844 3.95387 -6.53738
upperback 7.23683 2.31968 -0.799685
thorax -11.8412 1.34063 1.45664
lowerneck -20.0313 -14.5972 -14.5112
upperneck 9.98291 -19.4379 19.9376
head 10.0089 -8.13693 5.93872
rclavicle -9.54166e-015 2.76311e-014
rhumerus 28.6007 -33.7513 -53.3856
rradius 126.763
rwrist -10.1342
rhand 5.97378 2.71486
rfingers 7.12502
rthumb 31.2983 -24.6293
lclavicle -9.54166e-015 2.76311e-014
lhumerus 70.3447 -67.2255 57.6052
lradius 88.8064
lwrist -19.4594
lhand -9.92826 84.2496
lfingers 7.12502
lthumb 16.0527 -113.605
rfemur -87.9773 -39.5802 19.5081
rtibia 82.196
rfoot -14.6345 -3.00776
rtoes -29.301
lfemur -71.5729 21.1601 12.442
ltibia 70.7375
lfoot -23.6261 -3.82152
ltoes -26.8603
529
root 7.49551 12.886 -13.3685 26.5944 38.2048 -4.61049
lowerback 41.4692 3.94202 -6.52736
upperback 7.35933 2.2702 -1.10665
thorax -11.7078 1.31869 1.1402
lowerneck -20.2085 -14.5134 -13.9724
upperneck 10.2283 -19.4247 19.6333
head 10.0249 -8.11525 5.74945
rclavicle 3.49861e-014 -8.94531e-015
rhumerus 28.1104 -34.5534 -53.3986
rradius 127.161
rwrist -10.1136
rhand 5.58442 1.93913
rfingers 7.12502
rthumb 30.9272 -25.4762
lclavicle 3.49861e-014 -8.94531e-015
lhumerus 72.3351 -67.581 56.1163
lradius 88.5967
lwrist -19.9446
lhand -9.83493 84.8891
lfingers 7.12502
lthumb 16.1426 -114.237
rfemur -88.5261 -39.8174 19.9283
rtibia 82.3819
rfoot -14.7079 -2.95777
rtoes -28.7696
lfemur -71.8451 21.0547 12.5743
ltibia 70.8329
lfoot -23.614 -3.83275
ltoes -26.8334
